<svg xmlns="http://www.w3.org/2000/svg" viewBox="0 0 228.67 206.04"><defs><style>.a{fill:none;stroke:#fff;stroke-linecap:round;stroke-linejoin:round;stroke-width:4px;}</style></defs><title>connect_whiteAsset 4</title><path class="a" d="M133.9,114.18H103.44v61.4H133.9v4.12c-5,2.28-5.62,7.29-5.62,13.12,0,8,3.66,11.22,11.63,11.22s12-3.25,12-11.22c0-5.83-1.05-10.84-6-13.12v-4.12h30.46v-61.4H145.92"/><polyline class="a" points="103.44 78.52 103.44 52.84 72.99 52.84"/><path class="a" d="M61,52.83H30.51v61.4H61v4.12c-5,2.28-5.62,7.3-5.62,13.12,0,8,3.66,11.23,11.63,11.23s12-3.26,12-11.23c0-5.82-1.05-10.84-6-13.12v-4.12h30.45V90.55"/><path class="a" d="M103.44,78.52V52.78H73V48.66c5-2.28,5.62-7.3,5.62-13.12,0-8-3.66-11.23-11.63-11.23S55,27.57,55,35.54c0,5.82,1,10.84,6,13.12v4.12H30.51v61.4H58"/><polyline class="a" points="73.8 114.18 103.44 114.18 103.44 90.55"/><path class="a" d="M103.26,52.83V78.52H99.14c-2.28-5-7.3-5.61-13.12-5.61-8,0-11.23,3.65-11.23,11.63s3.26,12,11.23,12c5.82,0,10.84-1,13.12-6h4.12v23.63h73.38"/><path class="a" d="M164.42,92.9,226.67,54,194.18,2,131.94,40.86l13.6,21.79-3.49,2.18c-4.57-3-9.16-.89-14.11,2.19-6.76,4.22-7.58,9-3.36,15.81s9.13,8.48,15.89,4.26c4.94-3.09,8.64-6.63,7.95-12l3.49-2.19Z"/><path class="a" d="M59.56,114.18H30.47v25.69H26.35c-2.28-5-7.3-5.62-13.12-5.62-8,0-11.23,3.66-11.23,11.63s3.25,12,11.23,12c5.82,0,10.84-1,13.12-6h4.12v23.63h73.38V114.18H74.79"/></svg>