<svg xmlns="http://www.w3.org/2000/svg" viewBox="0 0 223.78 176.74"><defs><style>.a{fill:none;stroke:#fff;stroke-linecap:round;stroke-linejoin:round;stroke-width:4px;}</style></defs><title>workshops_whiteAsset 5</title><line class="a" x1="169.45" y1="104.31" x2="174.39" y2="121.69"/><line class="a" x1="146.9" y1="26.26" x2="159.45" y2="70.42"/><path class="a" d="M154.64,53.51C209.54,39.19,207.35,25,207.35,25L195,23.07l0-21.07a33.67,33.67,0,0,0-15.8,13c-6.48,9.92-32.23,11.24-32.23,11.24"/><path class="a" d="M90.92,43.45l3.71.68-2.15,11,6.07,3.13A18.87,18.87,0,0,0,92.9,68.36C91,77.68,96.08,86.53,104.31,88.12s16.45-4.67,18.38-14a18.35,18.35,0,0,0-1.61-12.24l5.49-.52,2.14-11,7.64,1.4.66-3.38L86.63,39.16,86,42.54Z"/><ellipse class="a" cx="58.84" cy="94.24" rx="11.97" ry="14.01" transform="translate(-17.35 13.38) rotate(-11.32)"/><path class="a" d="M167.62,74.65s-17.06,24.67-34.53,30.74l.47,12.24s16.33-3.54,39.47-35.16C168.57,74.58,167.62,74.65,167.62,74.65Z"/><path class="a" d="M94.73,99.63h19a8.29,8.29,0,0,1,8.29,8.29V160a0,0,0,0,1,0,0H86.44a0,0,0,0,1,0,0V107.92A8.29,8.29,0,0,1,94.73,99.63Z" transform="translate(10.48 -7.76) rotate(4.49)"/><path class="a" d="M50.3,116.89H65.83a7.23,7.23,0,0,1,7.23,7.23v25.49a0,0,0,0,1,0,0h-30a0,0,0,0,1,0,0V124.12a7.23,7.23,0,0,1,7.23-7.23Z" transform="translate(10.6 -4.13) rotate(4.49)"/><path class="a" d="M208.08,45.88s11.6-3.84,13.7-14"/><path class="a" d="M66.45,170.63c4.94,5.08,22.63,4,22.63,4"/><ellipse class="a" cx="21.07" cy="105.63" rx="10.47" ry="12.26" transform="translate(-11.22 2.87) rotate(-6.16)"/><path class="a" d="M11.44,127H23.22a7.23,7.23,0,0,1,7.23,7.23V155.6a0,0,0,0,1,0,0H4.21a0,0,0,0,1,0,0V134.2A7.23,7.23,0,0,1,11.44,127Z" transform="translate(23.91 -0.91) rotate(9.64)"/><path class="a" d="M83.48,43.46a9.22,9.22,0,0,1-5.72,6.9"/></svg>