<svg xmlns="http://www.w3.org/2000/svg" viewBox="0 0 100.93 170.78"><defs><style>.a{fill:#fff;stroke:#fff;stroke-miterlimit:10;stroke-width:0.5px;}</style></defs><title>insightful_whiteAsset 7</title><path class="a" d="M68.49,141.15H32.43a6.56,6.56,0,1,1,0-13.12H68.49a6.56,6.56,0,0,1,0,13.12ZM32.43,131a3.56,3.56,0,1,0,0,7.11H68.49a3.56,3.56,0,1,0,0-7.11Z"/><path class="a" d="M50.47,170.53a10.84,10.84,0,0,1-10.54-8.16,13.28,13.28,0,0,1-11.39-13.11v-1.5H72.38v1.5A13.29,13.29,0,0,1,61,162.37,10.84,10.84,0,0,1,50.47,170.53ZM31.65,150.76a10.3,10.3,0,0,0,9.61,8.73l1.22.07.18,1.21a7.9,7.9,0,0,0,15.63,0l.18-1.21,1.21-.07a10.3,10.3,0,0,0,9.59-8.73Z"/><path class="a" d="M74.16,121.32H26.49V104.05A211.06,211.06,0,0,0,11,81.44a49.58,49.58,0,0,1-10.75-31,50.22,50.22,0,0,1,100.43,0,49.51,49.51,0,0,1-10.76,31,239.49,239.49,0,0,0-15.76,23Zm-44.67-3H71.16V103.65l.22-.36a240.5,240.5,0,0,1,16.19-23.7,46.63,46.63,0,0,0,10.1-29.13,47.21,47.21,0,1,0-94.42,0A46.61,46.61,0,0,0,13.36,79.58a213,213,0,0,1,15.93,23.3l.2.35Z"/><rect class="a" x="36.68" y="66.03" width="3.43" height="53.28" transform="translate(-18.94 10.36) rotate(-12.35)"/><rect class="a" x="35.17" y="91.73" width="54.38" height="3" transform="translate(-41.87 134.66) rotate(-77.9)"/><rect class="a" x="42.29" y="159.56" width="16.87" height="3"/><polygon class="a" points="47.78 84.53 44.78 73.02 36.62 78.48 35.42 76.7 46.09 69.56 48.24 77.78 53.74 64.38 58.28 77.33 66.32 73.66 67.22 75.61 57.04 80.26 53.59 70.41 47.78 84.53"/></svg>