<svg xmlns="http://www.w3.org/2000/svg" viewBox="0 0 199.26 190.71"><defs><style>.a{fill:none;stroke:#fff;stroke-linecap:round;stroke-linejoin:round;stroke-width:4px;}</style></defs><title>inspired_whiteAsset 3</title><path class="a" d="M41.73,124.58a19.06,19.06,0,1,1-38.12,0"/><path class="a" d="M79.52,124.58a19.06,19.06,0,1,1-38.11,0"/><path class="a" d="M117.32,124.58a19.06,19.06,0,1,1-38.12,0"/><path class="a" d="M155.12,124.58a19.06,19.06,0,1,1-38.12,0"/><path class="a" d="M192.92,124.58a19.06,19.06,0,1,1-38.12,0"/><path class="a" d="M79.52,169.5a19.06,19.06,0,1,1-38.11,0"/><path class="a" d="M117.32,169.5a19.06,19.06,0,1,1-38.12,0"/><path class="a" d="M155.12,169.5a19.06,19.06,0,1,1-38.12,0"/><line class="a" x1="2" y1="103.55" x2="197.26" y2="103.55"/><path class="a" d="M145.2,99.38a47.28,47.28,0,1,0-93.88,0"/><line class="a" x1="99.84" y1="2" x2="98.77" y2="25.34"/><line class="a" x1="68.02" y1="7.09" x2="74.93" y2="29.39"/><line class="a" x1="39.84" y1="22.85" x2="53.91" y2="41.43"/><line class="a" x1="18.71" y1="47.36" x2="38.23" y2="59.97"/><line class="a" x1="7.18" y1="77.68" x2="29.8" y2="82.8"/><line class="a" x1="189.9" y1="80.82" x2="166.9" y2="83.81"/><line class="a" x1="179.39" y1="50.12" x2="158.8" y2="60.85"/><line class="a" x1="159.11" y1="24.89" x2="143.39" y2="42.08"/><line class="a" x1="131.48" y1="8.18" x2="122.55" y2="29.74"/></svg>