<svg xmlns="http://www.w3.org/2000/svg" viewBox="0 0 176.74 5.73"><defs><style>.a{fill:#0bc9cd;}</style></defs><title>accent_straightAsset 6</title><path class="a" d="M152.85,1.21a.17.17,0,0,0,0-.1A.14.14,0,0,0,152.85,1.21Z"/><path class="a" d="M138.92.71l.16,0C139,.68,138.94.69,138.92.71Z"/><path class="a" d="M161.2,1.4s0,0,0,0h.58Z"/><path class="a" d="M109.21.26h.19A1.18,1.18,0,0,0,109.21.26Z"/><path class="a" d="M126.82.58a.76.76,0,0,1-.24.07C126.7.65,126.79.64,126.82.58Z"/><path class="a" d="M165.62,3.34l-.24-.13C165.39,3.27,165.47,3.33,165.62,3.34Z"/><path class="a" d="M174.08,2.74l0,0S174.06,2.73,174.08,2.74Z"/><path class="a" d="M170.77,2.23l-.24.06C170.63,2.29,170.76,2.28,170.77,2.23Z"/><path class="a" d="M170.42,2.32l.11,0C170.47,2.29,170.42,2.3,170.42,2.32Z"/><path class="a" d="M1.32,1.68a1.77,1.77,0,0,0-.67.19Z"/><path class="a" d="M82.31.37l.06,0C82.32.34,82.31.36,82.31.37Z"/><path class="a" d="M1,2.84l-.17,0A.5.5,0,0,0,1,2.84Z"/><path class="a" d="M161.14,3.73c-.25.13-.75,0-.74.11C160.66,3.81,161,3.91,161.14,3.73Z"/><path class="a" d="M76.66,5.35H76.5A.81.81,0,0,0,76.66,5.35Z"/><path class="a" d="M1,2.84l.2,0-.06-.06A.35.35,0,0,1,1,2.84Z"/><path class="a" d="M54.31.52h0l0,0Z"/><path class="a" d="M52.82.31l.32,0A.62.62,0,0,0,52.82.31Z"/><path class="a" d="M.65,1.87.27,2A2.11,2.11,0,0,0,.65,1.87Z"/><path class="a" d="M36.81.62,37,.6Z"/><path class="a" d="M128,.65l.13,0S128.08.62,128,.65Z"/><polygon class="a" points="116.91 4.21 116.9 4.21 116.9 4.21 116.91 4.21"/><path class="a" d="M117.5,4a.93.93,0,0,0-.59.17A1.25,1.25,0,0,0,117.5,4Z"/><path class="a" d="M115.64,4.15h0Z"/><path class="a" d="M127.53,4.32h0Z"/><path class="a" d="M125.17,4.36,125,4.3A.34.34,0,0,0,125.17,4.36Z"/><path class="a" d="M109.78,4.56h0Z"/><path class="a" d="M87.6,5.68c2.23-.09,5.11-.38,7.32-.32A5.17,5.17,0,0,1,96.8,5l.08.36.58-.12c.24.11-.45.07,0,.2l.22-.22c0,.13,1.5.07.52.34l2.28,0c.51,0,.29-.3.85-.22.12.11-.2.08-.15.21,1.67.25,1.93-.71,3.49-.56l-.13,0c.26-.1.77-.09.77-.14-.2-.36-.27.2-.75,0,0-.31.59-.17.56-.4.36.11.58-.07.9-.09.54.19,1.32.05,1.73.28a2.76,2.76,0,0,1,1.13-.41c.41.23-.09.23.46.31l.09-.18c.46,0,.39.08.37.16.49,0,.41-.24,1-.13l-.34.17a6.33,6.33,0,0,1,1.27,0c0,.1-.27.1-.45.07.34.26.58-.12.77-.09,0-.08-.49-.11-.28-.29.32,0,.67-.24.89,0l-.34.17c.66-.14.35-.22,1.1-.16,0,0,0,.06,0,.09a4.68,4.68,0,0,1,1.8,0l-.13.05c.28-.07.44-.22.59-.21-.4-.1-.29-.15-.33-.32.53.28.8-.35,1.67-.18,0,.1-.22.23-.46.12-.29.3-.33.55-.85.7.32-.07.71-.12.63,0l.1-.28c.2,0,.35,0,.5,0,.09-.18-.4-.29.06-.41s.28.29.36.16c.71-.12.29-.3,1-.21-.07,0-.21.07-.26,0,.49.11,1.2,0,1.35.28-.07.07-.09.17-.27.15v0c-.53.24.46-.07.29.23,0-.18.65-.14,1-.11l-.1-.21c1-.62,0,.41,1,.32.65-.14-.25-.05.15-.2a3.74,3.74,0,0,0,1.25.12c.18.08.54.19.57.42.4-.1,1.19.09,1.41-.13-.67-.19-.66.24-1.44-.05l.21-.23a15.13,15.13,0,0,1,1.61,0c-.08,0-.11-.1-.06-.14a7.12,7.12,0,0,1,1.74-.26c.1.21-.34.18-.66.2.49.16.51,0,1.26.07,0,.17-.51,0-.59.16l.83-.06s0,0,0,0c.12-.3.63,0,1.14-.07,1.2,0,1.38-.41,2.05-.65.18.07.23.15.16.23-.3-.13-.25,0-.35.05.41,0,.89.29.67.41.64-.09-.24-.16.16-.25h.88c-.11-.15-.42-.18,0-.3a6.33,6.33,0,0,1,1.08,0c-.08.07.16.23-.22.22a1,1,0,0,0,.77-.09c-.55-.13.9-.13.49-.37l.55.14c-.12,0-.14.1-.32.07.16.23.45-.07.64-.1s.7.07.74.16a.81.81,0,0,1,.68.1c.26,0,0-.16.1-.23h.88c.05.13.13.49,0,.54.34-.13.12-.38.62-.38-.28.25.67.19.26.49a3.17,3.17,0,0,0,1.56.1c.28-.2-.49-.11-.46-.31,1.27-.08,1.35-.64,2.29-.55l-.25,0a2.16,2.16,0,0,0,.86-.27c-.16.25.67.67,1.63.61.08-.13-.54-.24-.39-.44l.64,0c.05,0,0,.06-.1.1.57-.1,1.06.32,1.22,0l.59.37-.23-.16c.07-.13.71-.17.85-.22a1.63,1.63,0,0,1,1.25.13c-.12-.11-.4-.34.11-.38,0,.4,1.08.14,1.07.35.21,0,.58.12.6,0l0,.25c0-.35.8-.34,1.38-.41-.13.49.64,0,.9.4.1-.33,1-.14,1.12-.41.45,0,.41.28.52.38l.21-.12a8.82,8.82,0,0,0,1.56.27l.47-.29.17.13c.07-.07.46-.12.22-.22h.25c0-.31.35-.09.85-.22.12,0,.09.12,0,.16.25,0,.14.17.28.27-.18-.08.9-.57.22-.71,0-.12.35-.22.6-.17l.15.29.29-.3c.39-.05.55.13.86.16-.32,0-.7.55.12.54a3.53,3.53,0,0,0-.87.26c.17,0,.26,0,0,.15.65-.09.22-.17.86-.21,0,.25.14.33.7.42l-.42-.19a.27.27,0,0,1,.08-.07c-.16,0-.2-.06-.24-.16.13,0,.74-.32.85-.16-.65-.39,1.11-.32.7-.55.07-.07.52-.09.57,0-.53.2.4.29.32.47.19-.08-.43-.19-.16-.29a1.43,1.43,0,0,1,.73.22l-.13,0,.49.11c.08-.13-.48-.21,0-.28.12,0,.57,0,.55.08-.21.18-.05.41-.44.45.32,0,1.34,0,.93-.29h.38c-.24-.11-.91-.3-.15-.34v.06l.53-.2.23.13c0-.06.08-.12.27-.12s.24.1.23.21c.57,0,.52-.15.6-.22.32,0,.44,0,.29.18a6.8,6.8,0,0,1,1.5.12c.59-.11-.12,0,.22-.22.51.44,1.94.16,2.9.09-.26-.38.26,0,.43-.39-.2.12.91.29.08.4l.51,0c.35.21-.85.16-.32.45.58,0,.95-.44,1.62-.3-.22.27.52-.1.36.21a1.21,1.21,0,0,1-.52.09l.12.05c1.26.07.36-.32,1-.52.76,0,.6.22.65.34a1.35,1.35,0,0,0,.7-.06c-.46.17-.86-.17-.65-.34.34.31,1.14,0,1.35-.11-1.1-.32-.76,0-1.79-.36-.14.1-.12.38-.73.27.38-.14,0-.15-.14-.2.12.16-.43.07-.62.14-.17-.13.37-.37-.25-.43l-.12.37c-.24,0,.1-.27-.42-.18.28-.2-.08-.31.62-.37-.84-.32-1.29.18-1.94.32.07,0,.08-.07.14-.1a1.34,1.34,0,0,1-.58.12c-.44-.08.34-.17.22-.27h-.69s0,0,0,0c-.18.06-.36.09-.42,0a4.3,4.3,0,0,0,.42-.35l-.73.27c.08-.13-.6-.21-.08-.31L168.52,2l-.09-.25c-.26,0-.27.09,0,.12-.37-.05-1.64.46-1.44,0a17.7,17.7,0,0,1-2.19.27c.79-.24-.91-.3-.07-.41-.5-.11-.6.17-1,.21s-.21-.36.19-.45l-.46.12V1.51l-.4.14c-.42-.13-.09-.25-.53-.28l-.09.22-.3-.13c.11.11-.15.15-.46.17v0l-.38,0c.38-.14-.36,0-.18-.21a5.81,5.81,0,0,0-.94,0l.11.15c-.78.14,0-.23-.67-.24l0,.18c-.91-.29-1.54.18-2.21,0,.38,0,.28-.25.28-.2a10.3,10.3,0,0,0-2.12.25c-.22-.26-.28-.34-.89-.45-.45,0-.52.05-.66.2-.43-.1-1.25,0-1.27-.13-.1.14-.39,0-.63.1l-.05-.08,0,.18c-.77-.4-1.3.23-2.07-.11l.13-.05-.33.07c-.05-.08.08-.12.1-.23l-1.52,0,.3.13c-.32,0-.53.2-.9.09.61-.27-.5,0-.6-.21l.32-.07c-.44,0-.44,0-.4.19-.58.07-.4-.33-.93-.14h.38c.11.1-.16.25-.42.25-.06,0-.24-.11,0-.13-.46.07-1.14,0-1.34.05s-.16-.18,0-.23c-1,.17-.44,0-1.41.13V1l-.33.12L142.65,1l.17.13a3.23,3.23,0,0,1-.89,0l.15-.15c-.9.09-1-.24-1.9,0-.05,0,.08-.07.15-.1-.8.24-.6-.26-1.4,0,0-.05,0-.11,0-.16l-.36.1,0-.2-.3.3L138.07.7l-.14.1c-.39-.38-.94-.09-1.47-.37l.09.25c-1.34.54-3.06-.28-4.68,0l0-.2-.67.24c-.36-.16.22-.17.1-.28-.71.12-.29.3-1.12.37-.43-.14.15-.15.34-.23a9.74,9.74,0,0,1-2.47.12s-.05.06,0,.07a13,13,0,0,1-1.78,0c0-.1.16-.11.3-.13a1.33,1.33,0,0,0-.66,0l.21-.18c-.43,0-1.28.14-1.38-.07,0,.08,0,.23-.35.22-.21-.3-1,.14-1.64,0,.08-.08.52-.09.4-.1a1.39,1.39,0,0,0-.85.17l.08-.13L121,.74c-.21-.3-1.33.06-1.24-.17-.5,0,.43.14-.21.17-.17-.12-.58.07-.55-.13l.06,0h-.44l.28-.2c-.39,0-.67.25-.69.4-.36-.11-.88,0-1.05-.19l.14,0c-1,.08-1.7-.54-2.51-.19-.06,0-.05-.08.07-.08h-.63l.15-.15-1,.24,0-.1c-.69,0-1.78,0-2.67.06l.14,0c-1,.16-.94-.09-1.65,0l.07,0h-.64l.14-.1c-.47.22-1.35-.27-1.06-.09a2.76,2.76,0,0,0-.81.34c-.69,0-.17-.13-.6-.21s-.59.17-1.28.08l0-.1c-.32,0-.52.09-1,.11l.13,0c-.72.22-.9-.29-1.47.16-.31-.08-.89,0-.86-.22-.9.14-1.61.2-2.5.29-.15-.33-.2,0-.74-.16l0,.17C97.34.53,95.87.1,94.47.18l0-.18-.28.2C92.64.12,90.69.07,89.49.07a4.61,4.61,0,0,1-1.62.26l.07,0a18.47,18.47,0,0,1-3.43.1c.07-.07-.05-.12.08-.17-.28.2-.69,0-1,0l.3.13a1.09,1.09,0,0,1-1-.12l-.54.2s-.09,0-.1-.08l-.09.1L81.94.24c-.14,0-.84.11-1.06.34-.06-.08-.55-.14-.17-.19l-1.95,0,.3.08c0,.18-.54.29-.85.22.4-.15,0-.26-.14-.39-.26.1.23.16.1.26A2.86,2.86,0,0,1,77,.62l.2-.08C76.7.61,76.48.3,76,.32s-.7,0-.61.32c-.58.07-.23-.2-.42-.23a1.5,1.5,0,0,1-1.18-.1c-.32.45-1.57-.15-1.68.23L71.67.33c0,.1-.11.33-.49.37S70.9.42,70.79.32l-.24.37c-2.1-.38-4.86-.1-7.16-.41A29.5,29.5,0,0,1,59.88.5l.13,0L58.82.36l.87.16A3.73,3.73,0,0,1,59,.64,19.65,19.65,0,0,0,54.32.52c-1,.44-.7-.38-1.69-.06.08,0,.11-.1.19-.15a24.15,24.15,0,0,0-2.73.5c.12-.43-.7,0-.6-.22L49.4.77c-.24-.11-.8-.14-.72-.27L48.2.73l0-.18c-.63,0-2,.14-2.31-.22a33.86,33.86,0,0,1-6,.16,3.66,3.66,0,0,1-1.29.19L38.11.47c-.45.07-.93.34-1.35.2,0,0,0,0,.05-.05a3.94,3.94,0,0,0-1.33.14c-.51,0-1-.12-.84-.32,0,.35-1.07,0-1.07,0S7.64-.28,1.32,1.68c-.21.18-.8.29-.57.5C.3,2.25.09,1.94,0,2.12c.62.11-.19.45.42.66L0,2.83C0,3,.56,2.68.46,2.91l.11-.33a1.06,1.06,0,0,1,.6.23c.29-.13.48-.58,1.18-.39l-.19,0c.57,0,.35.21.47.27H2.5L3,2.86C2.62,2.76,2,3,2.34,3c.68.09-.18-.07.33-.12.32,0,.23.16.22.26l.57,0c0,.16-.38,0-.15.15L4,3.11c.14.38.79-.19,1.12.17-.52.09,0,.13,0,.25l1.27,0c.12,0-.33.12-.14.1s.4-.1.52-.09,1,0,.92.24c.86.16.36-.33,1.16-.19.11.16-.63,0-.28.2L9.4,3.7a.5.5,0,0,1-.48.22c2.26.19,3.48,1,5.53.77.29.18-.21.13-.41.25,1.49-.26,2.1.39,3.37.36l0-.16c1.77.46,3.9.17,5.9.35l-.24-.11a4.75,4.75,0,0,1,1.05-.23c.05.07-.24.32.34.26-.12-.06-.36-.11-.29-.19,1.72.39,5.34.26,8.17.44,3.81-.15,8,.12,11.7,0-.57,0-.33-.36.1-.28,1.18.63,2-.12,3.25.31,2.18-.22,4.14.32,6.17-.19l0,.18c.3.08.38,0,.7-.06v0c.76.06,1.67-.13,2.1,0l0-.2c.45,0,.24.16.69,0v.1l.54-.2c0,.36,1.26,0,1.62.18a13.6,13.6,0,0,1,2.55-.16,7.63,7.63,0,0,0,1.93.26c1.33-.06,3.24-.13,4.94-.08l0-.23h.44s.06.07,0,.1c.35.26,1-.09,1.38.07-.22-.21-.31,0-.56,0s0-.33.47-.22v0l.34-.12c0,.18.34.26.38.44a39.65,39.65,0,0,1,4-.29c-.16.2,1.08-.06.78.29.9-.14-.15-.28.26-.53.25,0,.52-.09.56,0-.12.09.21.21,0,.25l.61,0c.06,0-.08.07-.14.09,1.23-.21,2.19.22,3.29,0,.08-.13-.44,0-.36-.16,1.11-.27,1,.22,2,0l-.21.17a1.29,1.29,0,0,1,1-.13c.1.2-.47.17-.73.26.38,0,1.33,0,1-.23a1.62,1.62,0,0,1,.86.16s-.42-.13-.15-.23a16.87,16.87,0,0,0,2.32.11c0,.06.05.13,0,.16C86.83,5.29,86.77,5.74,87.6,5.68Z"/><path class="a" d="M127.83,4.35l-.3,0s0,.1-.16.15Z"/><path class="a" d="M113.38,4.32l-.1.06C113.35,4.37,113.37,4.35,113.38,4.32Z"/><path class="a" d="M109.88,4.71c.25,0,0-.1-.1-.15S109.78,4.65,109.88,4.71Z"/><path class="a" d="M136,3.76s-.08,0-.07.08S136,3.78,136,3.76Z"/><path class="a" d="M158.64,3.74l-.1,0A.13.13,0,0,0,158.64,3.74Z"/><path class="a" d="M157.38,3.43l-.26,0A.49.49,0,0,0,157.38,3.43Z"/><path class="a" d="M130.53,3.87a.65.65,0,0,0-.24.06A.39.39,0,0,0,130.53,3.87Z"/><path class="a" d="M156.86,3.51l-.31,0s0,0,0,0Z"/><path class="a" d="M159,3.77c-.12,0-.29,0-.39,0A.6.6,0,0,0,159,3.77Z"/><path class="a" d="M144.32,3.44h0C144,3.53,144.19,3.49,144.32,3.44Z"/><path class="a" d="M155.49,3.87h-.05l-.09.06Z"/><path class="a" d="M160.4,3.84a.38.38,0,0,0-.16,0l.18,0A.1.1,0,0,1,160.4,3.84Z"/><path class="a" d="M149.05,3.72c.09-.08.13-.13.13-.17S149,3.59,149.05,3.72Z"/></svg>