<svg xmlns="http://www.w3.org/2000/svg" viewBox="0 0 447.09 158.57"><defs><style>.a{fill:#fff;}</style></defs><title>blm_logo</title><path class="a" d="M203.9,257V286.8a37.46,37.46,0,0,0,12.8,2.29c13.61,0,23.38-9.08,23.38-21.67a21.35,21.35,0,0,0-4.49-13.62h6.68A23.88,23.88,0,0,1,246,267.09c0,16.53-11.52,27.15-29.2,27.15-6.28,0-11.4-1.1-18.49-3.72V209.6h5.58V257Z" transform="translate(-198.32 -209.02)"/><path class="a" d="M317.86,290.58a35.54,35.54,0,0,1-16.21,3.66c-16.47,0-28.38-11.89-28.38-28.42a34.86,34.86,0,0,1,.51-5.95h43.57c-2.15-10.46-8.23-15.58-18-15.58V238.7c12.16,0,25.2,8,25.2,25.81H279.73c-1.77,13.67,9.76,24.14,22.68,24.14a30.48,30.48,0,0,0,17-5.09Z" transform="translate(-198.32 -209.02)"/><path class="a" d="M362.76,266.49l-11.91-28.1h6l11.62,28.1Z" transform="translate(-198.32 -209.02)"/><path class="a" d="M447.93,238.7c15.72,0,27.36,12,27.36,28.08s-11.64,28-27.36,28-27.48-12-27.48-28h6.12c0,12.84,9.12,22.32,21.36,22.32s21.24-9.48,21.24-22.32-9.13-22.44-21.24-22.44Z" transform="translate(-198.32 -209.02)"/><path class="a" d="M622.75,247.55V209h5.76v81.73c-7.32,2.88-12.6,4.08-19.08,4.08-18.24,0-30.12-11.64-30.12-29.76a32.28,32.28,0,0,1,2-11.41h6.79a25.81,25.81,0,0,0-2.65,11.77c0,13.8,10.08,23.76,24.12,23.76a36.58,36.58,0,0,0,13.2-2.52V247.55Z" transform="translate(-198.32 -209.02)"/><path class="a" d="M555.13,294h-6V265.52c0-14.52-9.33-21.13-18-21.13-9.32,0-19,7.9-19,21.13l-.27,28.29-6-.06.27-28.26c0-17,12.69-27.1,25-27.1,11.93,0,24,9.32,24,27.13Z" transform="translate(-198.32 -209.02)"/><path class="a" d="M351.14,321.21l-2.78-3.77c.2-.05,15-4.05,26-29.65l19.66-49H400L379,289.63C368.36,317.69,352,321,351.14,321.21Z" transform="translate(-198.32 -209.02)"/><path class="a" d="M199.28,366.86V355.44h1.93v10.34h8.27v1.08Z" transform="translate(-198.32 -209.02)"/><path class="a" d="M282.65,355.94V364c0,1.33,1.45,2.44,4.18,2.44S291,365.33,291,364v-8.06H293v8c0,2.28-2.52,3.6-6.12,3.6s-6.11-1.32-6.11-3.6v-8Z" transform="translate(-198.32 -209.02)"/><path class="a" d="M366.41,367.41h-2.22l5.22-6L364.53,356h2.22l3.75,4.18,3.67-4.18h2.23l-4.77,5.45,5.32,6h-2.22l-4.21-4.71Z" transform="translate(-198.32 -209.02)"/><path class="a" d="M450.51,355.94V364c0,1.33,1.45,2.44,4.18,2.44s4.18-1.11,4.18-2.44v-8.06h1.94v8c0,2.28-2.52,3.6-6.12,3.6s-6.11-1.32-6.11-3.6v-8Z" transform="translate(-198.32 -209.02)"/><path class="a" d="M533,367.57V356.16h5.6c3.77,0,5.83,1.1,5.83,3,0,1.61-1.43,2.53-3.48,3l3.7,5.44h-2.11L539,362.38H535v5.19Zm1.93-6.26h3.51c2.65,0,4.06-.65,4.06-2.09s-1.6-2-4.09-2H535Z" transform="translate(-198.32 -209.02)"/><path class="a" d="M620.33,362.79,615,356.18h2.13l4.21,5.24,4.2-5.24h2.13l-5.37,6.61v4.81h-1.93Z" transform="translate(-198.32 -209.02)"/><path class="a" d="M635.89,211v4.23h-.79V211H633v-.44H638V211Z" transform="translate(-198.32 -209.02)"/><path class="a" d="M644.7,215.26V211h0l-2,4.27h-.61l-2-4.27h0v4.27h-.71v-4.67h1.23l1.82,3.78h0l1.79-3.78h1.24v4.67Z" transform="translate(-198.32 -209.02)"/></svg>