<svg xmlns="http://www.w3.org/2000/svg" viewBox="0 0 735.85 446.89"><defs><style>.a{fill:#fff;}</style></defs><title>pure_logoAsset 1</title><path class="a" d="M22.54-607.29C-14.86-595.29-55.4-593-94.84-593a203.44,203.44,0,0,1-28.82-1.73v2.05c0,23.34,9.27,83.4,23.27,116.08a43.08,43.08,0,0,1,1.12,6.21c.43,13.36-17.41,17.3-25.49,13.8-10.39-4.51-15-39.69-16.38-48.95-4.48-26.06-6.88-51.81-8.93-78.57,0-2-.34-4.11-.34-6.16,0-3.09-.68-6.52-.68-9.61-15.45-3.77-31.24-8.24-31.24-20.25,0-13.35,17.16-26.74,33-26.74,1-6.86,4.89-25,9.92-29.15,7.78-6.49,19,.41,16.13,19.2-1.88,12.32-.86,27.68-.86,27.68,16.71,7.66,27.94,15.77,54.29,17.48,24.64,1.62,55.64-.17,79.05-8.2,37.21-12.76,87.24-39,87.24-77.76,0-16.12-11.12-38.8-36.18-60.41C30-783.71-22.13-796.09-71.18-796.09c-34,0-77.86,3.19-103.25,10.38-43.58,12.38-95.92,46.83-95.92,82.5,0,2.76,5.66,4.72,6.07,11.68.42,7.76-4.27,19.25-17.19,12.78-4.84-2.42-7.53-7.88-7.53-16.8,0-20.23,12.69-37.72,25-50.43,20.57-21.28,46.63-36.7,73.4-47.36A318,318,0,0,1-70.15-817c77.88,0,202.4,28.83,202.4,113.57C132.25-656.12,56.16-618.26,22.54-607.29Z" transform="translate(289 817)"/><path class="a" d="M35.84-499.51c-1.71-2.81-4-7.33-6.56-8-9.72,1.29-27.41,43.18-73.16,46.23-15.15,1-20.75-5.19-27.23-20.11-4.53-11-7.77-22.66-7.77-35,0-7.78-1.56-10.66-.26-18.43-1.3-2-.34-5.34.91-10.74,2.5-10.74,11.7-18.32,21.39-17.5,8.38.69,6.28,4.88,5.82,8.43-1.07,8.36-.62,16.19-.62,24.62,0,13.62.66,34.32,11,43.43,5.3,4.64,11,5.18,17.51,5.18,11,0,27.41-19.86,34.35-30.46,4.06-6.18,7.77-13,9.73-20.08l.89-2.12c5.66-12.81,21.12-5,23.74-5,3.87,0,3.87,1.33,5.17,4.55,3.26,8.41,9.73,16.21,16.21,22,9.07,9,21.38,14.25,32.39,20.74,8.44,1.29,16.22,5.82,24.64,7.76a136.28,136.28,0,0,0,28.53,3.26c13,0,25.27-1.3,37.58-5.85,4.54-1.31-2.09-5.82,2.42-5.42,5.88.52,4.89,3.65,4.89,6.24-3.91,6.49,1.76,4.36-4.71,7-20.09,7.8-40.18,13.64-61.57,13.64C131.12-465.13,54-469.66,35.84-499.51Z" transform="translate(289 817)"/><path class="a" d="M334.3-552c-7.12,5.84-18.78,6.49-27.86,9.75-22,8.42-45.37,9.7-68.7,13-12.32,1.94-27.29-2.06-39,1.84-1.3,1.94,1.35,8.53,1.35,11.12,0,4.53,1,8.42.67,12.94-.95,14.54-2.93,22.19-5.85,29.85-1.74,4.55-2.46,5.3-6.87,9-5.4,4.5-9.34,5.9-16.47,5.9-11,0-7.76-9.7-7.76-16.84a132.32,132.32,0,0,0-1.54-16.29c-1.92-12.94-.41-22.14-4-34.59-2.58-8.84-6.38-13-6.75-18.45-.77-12.54,17.5-13,22.05-13,2.59,2.57,5.82,11,9.72,11,1.94,0,4.49-6.45,5.74-7.77,6-6.4,22,8.69,31.07,8.69,17.5,0,29.3.39,46.8-.92,24-1.9,47.31-9.71,71.29-12.31,1.94-3.88,8.43-1.28,11.67-3.88a6.62,6.62,0,0,1,5.17,3.25C351.16-552.65,341.45-551.34,334.3-552Z" transform="translate(289 817)"/><path class="a" d="M433.19-484.86c-21.66,10.81-22.81,12.56-59.61,24.33-5.49,1.76-14,3.54-19.81,3.54-13.61,0-33.19.21-44.72-7.78-8.39-5.8-14.34-8.7-18.53-18.68a34.27,34.27,0,0,1-2.21-6c-.68-3.17-.52-3.81-.52-7.07a36.7,36.7,0,0,1,1.17-5.24,143.2,143.2,0,0,1,8.43-22c2.12-4.61,3.89-9.09,5.82-13.62,6.49-13.62,16-16.75,28.61-22.14,4.67-2,12.87-4.46,16.12-4.46a32.43,32.43,0,0,1,17.49,5.19c9.14,5.93,10.85,20.53,10.85,25.73,0,12.31-45.36,36.37-56.38,39h0c0,14.9,27.38,21.51,40.35,21.51a103.15,103.15,0,0,0,32.39-5.19c9.27-3,20.83-5.32,29.18-9.72,5.49-2.89,4.9-2.55,8.77-4.56,4.61-2.38,10.07-7,12.49-7.37a4,4,0,0,1,3.72,1.54C447.6-491,439-487.75,433.19-484.86ZM347-543c-1.6-2.82-6.92-3.38-10.73-2.15-7.46,2.42-12.6,12.53-13.33,20.82,0,0-.81,5.21,2.41,6.75,4.35,2.5,9.36-1.88,11.78-4,0,0,10.76-9.11,10.76-14.93C347.9-536.55,348.36-540.6,347-543Z" transform="translate(289 817)"/><path class="a" d="M-126.13-373.48h21.47v2.8h-24.85v-43.46h3.38Z" transform="translate(289 817)"/><path class="a" d="M-91.53-370.68h-3.38v-43.46h3.38Z" transform="translate(289 817)"/><path class="a" d="M-54.5-411.33h-19v16.5h17.14v2.8H-73.49v21.35h-3.38v-43.46H-54.5Z" transform="translate(289 817)"/><path class="a" d="M-20.35-411.33H-40.67v17.39h19.81v2.8H-40.67v17.66h20.83v2.8H-44v-43.46h23.7Z" transform="translate(289 817)"/><path class="a" d="M38.15-411.33H17.83v17.39H37.64v2.8H17.83v17.66H38.66v2.8H14.45v-43.46h23.7Z" transform="translate(289 817)"/><path class="a" d="M83.78-414.14h4.33L69.44-392.92,89.2-370.68H84.86L67.28-390.56,49.69-370.68H45.36l19.69-22.24L46.38-414.14h4.33L67.28-395.4Z" transform="translate(289 817)"/><path class="a" d="M110.93-414.14c10.2,0,14.21,5.23,14.21,11.47,0,5.61-3.25,11.66-14.53,11.66h-8.28v20.33H99v-43.46Zm-8.6,20.33h8.09c8.09,0,11.09-3.89,11.09-8.8,0-4.71-3.06-8.72-10.71-8.72h-8.47Z" transform="translate(289 817)"/><path class="a" d="M160.06-411.33H139.74v17.39h19.81v2.8H139.74v17.66h20.83v2.8H136.36v-43.46h23.7Z" transform="translate(289 817)"/><path class="a" d="M183.45-414.14c10.64,0,14.4,5.42,14.4,11.22,0,5-2.74,8.54-8.28,10.57,2,1.09,3.76,3.57,5.8,6.63l9.81,15h-4l-7.58-11.92c-5.23-8.22-6.89-8.92-12.11-8.92h-5.86v20.84H172.3v-43.46Zm-7.77,19.82h7.2c7.64,0,11.34-3.31,11.34-8.54,0-4.91-3.5-8.47-11.47-8.47h-7.07Z" transform="translate(289 817)"/><path class="a" d="M216.91-370.68h-3.38v-43.46h3.38Z" transform="translate(289 817)"/><path class="a" d="M255.4-411.33H235.07v17.39h19.82v2.8H235.07v17.66h20.84v2.8H231.69v-43.46H255.4Z" transform="translate(289 817)"/><path class="a" d="M306.76-370.68H304l-33-38v38h-3.38v-43.46h2.87l32.94,38v-38h3.38Z" transform="translate(289 817)"/><path class="a" d="M357.74-407.38a32.2,32.2,0,0,0-15.48-4.21c-10.84,0-19,8.22-19,19.24,0,11.22,8.09,19.12,19.43,19.12,4.91,0,9.56-1.34,15.49-4.46v3.51a33.32,33.32,0,0,1-15.42,4.07c-13.26,0-23.14-9.49-23.14-22.24,0-13.31,10.9-22.36,22.82-22.36a36.92,36.92,0,0,1,15.29,3.63Z" transform="translate(289 817)"/><path class="a" d="M393.24-411.33H372.91v17.39h19.82v2.8H372.91v17.66h20.84v2.8H369.53v-43.46h23.71Z" transform="translate(289 817)"/><path class="a" d="M425.93-408.28c-4.46-2.54-6.76-3.31-9.75-3.31-5.23,0-9.18,3.57-9.18,8.28,0,11.6,20.71,6.06,20.71,21.29,0,6.69-5.54,11.91-12.61,11.91A20.21,20.21,0,0,1,404-373.93v-3.95c4.84,3.5,7.58,4.65,11,4.65,5.16,0,9.17-3.76,9.17-8.67,0-12.36-20.71-6.94-20.71-21.28,0-6.43,5.61-11.53,12.49-11.53A20.65,20.65,0,0,1,425.93-412Z" transform="translate(289 817)"/></svg>