<svg xmlns="http://www.w3.org/2000/svg" viewBox="0 0 163.94 193.75"><defs><style>.a{fill:#fff;}</style></defs><title>ta_logoAsset 1</title><path class="a" d="M9.57,174.53a.63.63,0,0,0-.46-.3H8.84a.63.63,0,0,0-.46.3L.05,192.78a.48.48,0,0,0,.47.7H2.23a.69.69,0,0,0,.62-.4c.54-1.25,1.11-2.47,1.65-3.72h8.87l1.68,3.72a.63.63,0,0,0,.62.4h1.71a.48.48,0,0,0,.46-.7Zm-4,12.5,3.31-7.43H9L12.34,187Z" transform="translate(0)"/><path class="a" d="M36.41,174.5H34.6a.52.52,0,0,0-.52.52v11.25A4.46,4.46,0,0,1,29.53,191c-2.77,0-4.5-2.11-4.5-4.82V175a.52.52,0,0,0-.52-.52H22.69a.53.53,0,0,0-.51.52v11.39a7.18,7.18,0,0,0,7.35,7.34,7.21,7.21,0,0,0,7.4-7.34V175A.54.54,0,0,0,36.41,174.5Z" transform="translate(0)"/><path class="a" d="M48.76,182.55c-2.25-.92-3.45-1.87-3.45-3.41,0-1,.79-2.44,3.07-2.44A8.48,8.48,0,0,1,52,178.05a.62.62,0,0,0,.94-.27c.22-.32.47-.7.68-1a.63.63,0,0,0-.16-.92,9.16,9.16,0,0,0-5-1.6c-4.32,0-5.94,2.9-5.94,5,0,3.14,2.17,4.58,4.93,5.75s4.1,2.14,4.1,3.76c0,1.39-1.2,2.52-3.07,2.52a8,8,0,0,1-4.34-1.86.61.61,0,0,0-.92.21c-.24.35-.46.76-.7,1.11a.58.58,0,0,0,.16.87,8.75,8.75,0,0,0,5.83,2.14c3.52,0,6.05-2.3,6.05-5.12C54.59,185.32,51.9,183.83,48.76,182.55Z" transform="translate(0)"/><path class="a" d="M73.33,174.5H59.7a.52.52,0,0,0-.52.52v1.52a.51.51,0,0,0,.52.51h5.41V193a.53.53,0,0,0,.51.51h1.79a.53.53,0,0,0,.51-.51V177.05h5.41a.51.51,0,0,0,.52-.51V175A.52.52,0,0,0,73.33,174.5Z" transform="translate(0)"/><path class="a" d="M93.13,180.31a5.86,5.86,0,0,0-5.91-5.81H79.84a.52.52,0,0,0-.51.52V193a.51.51,0,0,0,.51.51h1.77a.53.53,0,0,0,.51-.51v-6.92h4.1l3.6,7.19a.53.53,0,0,0,.43.24h2.12a.51.51,0,0,0,.46-.79l-3.72-6.88A6,6,0,0,0,93.13,180.31ZM87,183.72H82.17v-6.59H87a3.33,3.33,0,0,1,3.31,3.23A3.37,3.37,0,0,1,87,183.72Z" transform="translate(0)"/><path class="a" d="M107.23,174.53a.63.63,0,0,0-.46-.3h-.27a.65.65,0,0,0-.46.3l-8.32,18.25a.47.47,0,0,0,.46.7h1.7a.7.7,0,0,0,.63-.4c.54-1.25,1.11-2.47,1.65-3.72H111l1.68,3.72a.63.63,0,0,0,.62.4H115a.48.48,0,0,0,.46-.7Zm-4,12.5,3.31-7.43h.13L110,187Z" transform="translate(0)"/><path class="a" d="M131.88,191h-8.09V175a.53.53,0,0,0-.51-.52h-1.79a.52.52,0,0,0-.52.52V193a.51.51,0,0,0,.52.51h10.39a.51.51,0,0,0,.52-.51v-1.49A.52.52,0,0,0,131.88,191Z" transform="translate(0)"/><path class="a" d="M138.33,174.5h1.79a.52.52,0,0,1,.52.52V193a.51.51,0,0,1-.51.51h-1.79a.52.52,0,0,1-.52-.52V175a.51.51,0,0,1,.51-.51Z"/><path class="a" d="M163.89,192.78l-8.27-18.25a.65.65,0,0,0-.46-.3h-.28a.67.67,0,0,0-.46.3l-8.32,18.25a.48.48,0,0,0,.46.7h1.71a.68.68,0,0,0,.62-.4c.54-1.25,1.11-2.47,1.66-3.72h8.86l1.68,3.72a.64.64,0,0,0,.63.4h1.71A.48.48,0,0,0,163.89,192.78ZM151.61,187l3.3-7.43h.14l3.33,7.43Z" transform="translate(0)"/><path class="a" d="M22.69,163.32h1.79a.53.53,0,0,0,.51-.52V146.89H30.4a.52.52,0,0,0,.52-.52v-1.52a.51.51,0,0,0-.52-.51H16.77a.51.51,0,0,0-.52.51v1.52a.52.52,0,0,0,.52.52h5.41V162.8A.53.53,0,0,0,22.69,163.32Z" transform="translate(0)"/><path class="a" d="M43.27,163.66A9.74,9.74,0,1,0,33.55,154,9.68,9.68,0,0,0,43.27,163.66Zm0-16.77a7,7,0,1,1-7,7.06A7.09,7.09,0,0,1,43.27,146.89Z" transform="translate(0)"/><path class="a" d="M65.55,163.66a7.2,7.2,0,0,0,7.39-7.33V145a.53.53,0,0,0-.51-.52H70.61a.51.51,0,0,0-.51.52V156.2A4.47,4.47,0,0,1,65.55,161c-2.76,0-4.49-2.11-4.49-4.82V145a.51.51,0,0,0-.51-.52H58.73a.53.53,0,0,0-.51.52v11.36A7.17,7.17,0,0,0,65.55,163.66Z" transform="translate(0)"/><path class="a" d="M87.45,144.45H80.09a.52.52,0,0,0-.52.52v17.91a.51.51,0,0,0,.52.51h1.76a.53.53,0,0,0,.51-.51V156h4.09l3.6,7.17a.48.48,0,0,0,.43.24h2.11a.51.51,0,0,0,.46-.78l-3.71-6.87a6,6,0,0,0,4-5.5A5.84,5.84,0,0,0,87.45,144.45Zm-.22,9.2H82.42v-6.57h4.81a3.31,3.31,0,0,1,3.3,3.22A3.36,3.36,0,0,1,87.23,153.65Z" transform="translate(0)"/><rect class="a" x="99.32" y="144.45" width="2.81" height="18.94" rx="0.51" ry="0.51"/><path class="a" d="M114.46,152.49c-2.24-.92-3.43-1.87-3.43-3.41,0-1,.78-2.44,3-2.44a8.32,8.32,0,0,1,3.66,1.36.64.64,0,0,0,.94-.27c.22-.33.46-.71.68-1a.65.65,0,0,0-.16-.92,9.16,9.16,0,0,0-5-1.6c-4.3,0-5.92,2.9-5.92,5,0,3.14,2.16,4.57,4.92,5.73s4.09,2.14,4.09,3.77c0,1.37-1.19,2.51-3.06,2.51a7.87,7.87,0,0,1-4.33-1.87.62.62,0,0,0-.92.22c-.24.35-.46.76-.7,1.11s-.09.65.16.87a8.78,8.78,0,0,0,5.82,2.13c3.51,0,6-2.3,6-5.11C120.28,155.25,117.6,153.76,114.46,152.49Z" transform="translate(0)"/><path class="a" d="M142.65,144.59a.54.54,0,0,0-.48-.41h-.44a.53.53,0,0,0-.46.3l-5.63,13.83h-.1l-5.66-13.83a.55.55,0,0,0-.46-.3H129a.54.54,0,0,0-.49.41l-3.35,18.18a.48.48,0,0,0,.51.62h1.76a.54.54,0,0,0,.49-.38l1.94-12.09H130l4.9,12.45a.48.48,0,0,0,.46.29h.49a.47.47,0,0,0,.46-.29l4.87-12.45h.08l2,12.09a.57.57,0,0,0,.52.38h1.75a.46.46,0,0,0,.49-.62Z" transform="translate(0)"/><path class="a" d="M43.13,102.1A146.3,146.3,0,0,1,79.39,82.17c2.89-1.11,9.33-3,10.92-3.47a6.36,6.36,0,0,0-1.74-4.14l-.12-.13c-.6-.57-2.5-2-7.55-3.17C79.41,73.27,75,76,69,79.71c-5,3.09-15.51,8.21-15.51,8.21s-12.72,6.16-16.9,9.81c-8.52,7.46-6.11,14.4-4.54,14.4S36,107.53,43.13,102.1Z" transform="translate(0)"/><path class="a" d="M131.14,23.44c1-2.59,1.34-3.76-.27-4.45-1.34-.58-3.66-1.24-4-.84C126.41,18.77,130.39,23,131.14,23.44Z" transform="translate(0)"/><path class="a" d="M29.28,49.16c9.24,8.73,21.93,15.35,40.24,17.1,15.47,1,20,4.42,21.33,5.72a.78.78,0,0,0,.15.16c3.51,3.53,4.67,11.21-2.84,15.78-2.44,1.4-15.45,9.5-16,9.8h0c-9.89,5.87-18.77,10-29.58,20.86-6.08,6.1-4.95,14.56-3.31,14.56s5.3-5.22,12.12-11.63c15.34-14.47,39.26-25.87,49.58-33,6.57-4.48,12.93-11,16.07-19.77a.19.19,0,0,1,0-.07.1.1,0,0,0,0,0c6-6,10.59-13.33,14-20.08.36,2,1.89,8.64,1.21,11.86-.81,3.9,3,2.31,3.71-2.92.51-3.64.55-13,.55-13a37,37,0,0,1,1.44-11.31,21.43,21.43,0,0,1,2.62-5.12,13.74,13.74,0,0,1,7-4c1.88-.62,2.41-4.36,1-4.89s-7.06-1.24-11.15-1.66c-1.58-1.4-5.25-3.92-6-3.5s2.54,5.18,2.93,6.13a18.81,18.81,0,0,1-2.31,6.39c-6.33,10.89-17.61,10.09-18.8,10.12a56.6,56.6,0,0,0-13,1.3C91,40.3,84.75,45.19,80.67,47.91a40.57,40.57,0,0,1-32.86,4.62c-18.75-5.1-30.33-26.32-31.17-27.71-1.4-2.35-2.79-1.8-2,.8S19.91,40.3,29.28,49.16Z" transform="translate(0)"/><path class="a" d="M70.08,48.61a36.23,36.23,0,0,0,8.49-3.92c.47-.32,1-.66,1.5-1,4.18-2.87,10.49-7.21,19.38-9.42,1-.25,2-.45,3-.62a25.1,25.1,0,1,0-32.38,15Z" transform="translate(0)"/></svg>