<svg xmlns="http://www.w3.org/2000/svg" viewBox="0 0 504 409.59"><defs><style>.a{fill:#fff;}</style></defs><title>twitter_logoAsset 1</title><path class="a" d="M504,48.49a206.82,206.82,0,0,1-59.39,16.28A103.71,103.71,0,0,0,490.08,7.56a206.87,206.87,0,0,1-65.66,25.09A103.49,103.49,0,0,0,248.22,127a293.55,293.55,0,0,1-213.13-108A103.53,103.53,0,0,0,67.09,157,102.94,102.94,0,0,1,20.26,144c0,.43,0,.87,0,1.3a103.46,103.46,0,0,0,82.94,101.39,103.48,103.48,0,0,1-46.7,1.77,103.51,103.51,0,0,0,96.6,71.81A207.45,207.45,0,0,1,24.67,364.58,209.26,209.26,0,0,1,0,363.13a292.66,292.66,0,0,0,158.51,46.46C348.7,409.59,452.7,252,452.7,115.39q0-6.73-.3-13.38A210.07,210.07,0,0,0,504,48.49Z"/></svg>